<svg width="0" height="0" class="hidden">
  <symbol xmlns="http://www.w3.org/2000/svg" viewBox="0 0 24 24" id="add">
    <path fill-rule="evenodd" clip-rule="evenodd" d="M12 4C12.5523 4 13 4.44772 13 5V11H19C19.5523 11 20 11.4477 20 12C20 12.5523 19.5523 13 19 13H13V19C13 19.5523 12.5523 20 12 20C11.4477 20 11 19.5523 11 19V13H5C4.44772 13 4 12.5523 4 12C4 11.4477 4.44772 11 5 11H11V5C11 4.44772 11.4477 4 12 4Z" fill="currentColor"></path>
  </symbol>
  <symbol fill="none" xmlns="http://www.w3.org/2000/svg" viewBox="0 0 25 25" id="alarm">
    <path d="M12.8433 23.2963C18.0071 23.2963 22.1933 19.1102 22.1933 13.9463C22.1933 8.78245 18.0071 4.59631 12.8433 4.59631C7.6794 4.59631 3.49327 8.78245 3.49327 13.9463C3.49327 19.1102 7.6794 23.2963 12.8433 23.2963Z" stroke="currentColor" stroke-linecap="round" stroke-linejoin="round" stroke-width="2"></path>
    <path d="M10.2933 1.19632H15.3933" stroke="currentColor" stroke-linecap="round" stroke-linejoin="round"></path>
    <path d="M12.8433 1.19632V4.59632" stroke="currentColor" stroke-linecap="round" stroke-linejoin="round"></path>
    <path d="M10.2933 10.5463L12.8433 13.9463H17.0933" stroke="currentColor" stroke-linecap="round" stroke-linejoin="round"></path>
    <path d="M21.3433 3.74632L23.0433 5.44632" stroke="currentColor" stroke-linecap="round" stroke-linejoin="round"></path>
    <path d="M4.34327 3.74632L2.64327 5.44632" stroke="currentColor" stroke-linecap="round" stroke-linejoin="round"></path>
  </symbol>
  <symbol xmlns="http://www.w3.org/2000/svg" viewBox="0 0 18 17" id="edit">
    <path d="M11 3.10001L2.40006 11.7C2.30006 11.8 2.30009 11.8 2.30009 11.9L1.00004 15.9C0.900037 16.3 1.30011 16.7 1.70011 16.6L3.30009 16.1L5.80009 15.3C5.90009 15.3 6.00004 15.2 6.00004 15.2L14.6 6.60001L11 3.10001Z" fill="currentColor"></path>
    <path d="M16.7001 0.900006C15.7001 6.07967e-06 14.2001 6.07967e-06 13.2001 0.900006L12 2.10002L15.4 5.49998L16.6 4.30003C17.1 3.80003 17.3 3.20002 17.3 2.60002C17.4 2.00002 17.2001 1.30001 16.7001 0.900006Z" fill="currentColor"></path>
  </symbol>
  <symbol xmlns="http://www.w3.org/2000/svg" viewBox="0 0 24 24" id="more-counter">
    <path fill-rule="evenodd" clip-rule="evenodd" d="M7.99999 21C8.25599 21 8.51199 20.902 8.70699 20.707L16.707 12.707C17.098 12.316 17.098 11.684 16.707 11.293L8.70699 3.29301C8.31599 2.90201 7.68399 2.90201 7.29299 3.29301C6.90199 3.68401 6.90199 4.31601 7.29299 4.70701L14.586 12L7.29299 19.293C6.90199 19.684 6.90199 20.316 7.29299 20.707C7.48799 20.902 7.74399 21 7.99999 21Z" fill="currentColor"></path>
  </symbol>
  <symbol fill="currentColor" xmlns="http://www.w3.org/2000/svg" viewBox="0 0 23 23" id="priority">
    <path d="M17.5521 13.2463C17.5561 12.1853 17.2763 11.1426 16.7418 10.2262C16.2073 9.30977 15.4374 8.55292 14.512 8.03407C13.5866 7.51522 12.5393 7.25324 11.4786 7.27527C10.4179 7.2973 9.38238 7.60254 8.47932 8.15937C7.57625 8.7162 6.8385 9.50436 6.34249 10.4422C5.84647 11.38 5.61024 12.4335 5.65826 13.4933C5.70628 14.5531 6.03681 15.5809 6.6156 16.47C7.1944 17.3592 8.0004 18.0774 8.95012 18.5503V21.4743C8.95455 21.6471 9.02636 21.8114 9.15022 21.9321C9.27408 22.0528 9.44019 22.1203 9.61312 22.1203H13.5911C13.7641 22.1203 13.9302 22.0528 14.054 21.9321C14.1779 21.8114 14.2497 21.6471 14.2541 21.4743V18.4993C15.2337 18.0116 16.0599 17.2633 16.6417 16.3365C17.2236 15.4097 17.5386 14.3405 17.5521 13.2463V13.2463Z" stroke="currentColor" stroke-linecap="round" stroke-linejoin="round"></path>
    <path d="M11.6022 1.02325V3.57325" stroke="currentColor" stroke-linecap="round" stroke-linejoin="round"></path>
    <path d="M18.4022 3.45428L16.6002 5.27328" stroke="currentColor" stroke-linecap="round" stroke-linejoin="round"></path>
    <path d="M22.2781 8.72424H19.7281" stroke="currentColor" stroke-linecap="round" stroke-linejoin="round"></path>
    <path d="M4.80212 3.45428L6.60412 5.27328" stroke="currentColor" stroke-linecap="round" stroke-linejoin="round"></path>
    <path d="M0.926147 8.72424H3.47615" stroke="currentColor" stroke-linecap="round" stroke-linejoin="round"></path>
  </symbol>
  <symbol xmlns="http://www.w3.org/2000/svg" viewBox="0 0 22 25" id="settings">
    <path d="M19.2887 13.9708C19.2345 13.9022 19.2051 13.8172 19.2053 13.7297V11.2133C19.2051 11.1258 19.2345 11.0408 19.2887 10.9722L20.4496 9.51769C20.6584 9.25626 20.7836 8.93794 20.8087 8.60428C20.8338 8.27061 20.7576 7.93714 20.5902 7.64741L19.9133 6.4758C19.7463 6.18583 19.4958 5.95297 19.1944 5.80764C18.893 5.66233 18.5547 5.61129 18.2239 5.66122L16.3845 5.94099C16.2975 5.9532 16.209 5.93635 16.1325 5.89307L13.9531 4.63488C13.8763 4.58875 13.8175 4.51789 13.7862 4.43395L13.1076 2.70897C12.9861 2.39779 12.7736 2.13047 12.4979 1.94187C12.2222 1.75327 11.896 1.65216 11.562 1.65173H10.2048C9.87078 1.65216 9.54462 1.75327 9.26888 1.94187C8.99316 2.13047 8.78067 2.39779 8.65916 2.70897L7.97752 4.43395C7.94504 4.51561 7.88632 4.58413 7.8106 4.6287L5.62655 5.89307C5.55018 5.93646 5.46157 5.95332 5.3746 5.94099L3.53988 5.66122C3.20903 5.61129 2.87079 5.66233 2.5694 5.80764C2.268 5.95297 2.01743 6.18583 1.85046 6.4758L1.17346 7.64741C1.00604 7.93714 0.929903 8.27061 0.955004 8.60428C0.980089 8.93794 1.10525 9.25626 1.31412 9.51769L2.47491 10.9722C2.52923 11.0408 2.55866 11.1258 2.55839 11.2133V13.7297C2.55866 13.8172 2.52923 13.9022 2.47491 13.9708L1.31412 15.4253C1.10525 15.6867 0.980089 16.005 0.955004 16.3387C0.929903 16.6723 1.00604 17.0058 1.17346 17.2955L1.85046 18.4672C2.01743 18.7571 2.268 18.99 2.5694 19.1352C2.87079 19.2806 3.20903 19.3317 3.53988 19.2817L5.37924 19.0019C5.46621 18.9896 5.55481 19.0064 5.63119 19.0499L7.8106 20.3081C7.88632 20.3526 7.94504 20.4211 7.97752 20.5028L8.65608 22.234C8.77758 22.5451 8.99006 22.8126 9.2658 23.0011C9.54152 23.1896 9.8677 23.2909 10.2018 23.2912H11.5558C11.8898 23.2909 12.216 23.1896 12.4917 23.0011C12.7675 22.8126 12.9799 22.5451 13.1015 22.234L13.78 20.5028C13.8125 20.4211 13.8712 20.3526 13.9469 20.3081L16.1264 19.0499C16.2028 19.0066 16.2914 18.9898 16.3783 19.0019L18.2177 19.2817C18.5485 19.3317 18.8867 19.2806 19.1881 19.1352C19.4895 18.99 19.74 18.7571 19.9071 18.4672L20.5841 17.2955C20.7516 17.0058 20.8276 16.6723 20.8024 16.3387C20.7775 16.005 20.6524 15.6867 20.4434 15.4253L19.2887 13.9708ZM10.8819 15.9493C10.194 15.9493 9.52163 15.7453 8.9497 15.3631C8.3778 14.981 7.93204 14.4378 7.6688 13.8024C7.40558 13.1669 7.33671 12.4676 7.4709 11.793C7.6051 11.1184 7.93632 10.4987 8.42271 10.0123C8.90907 9.52594 9.52876 9.19472 10.2034 9.06052C10.878 8.92634 11.5773 8.99521 12.2127 9.25843C12.8482 9.52165 13.3914 9.96741 13.7735 10.5393C14.1557 11.1113 14.3596 11.7836 14.3596 12.4715C14.3596 13.3938 13.9932 14.2784 13.341 14.9306C12.6888 15.5828 11.8042 15.9493 10.8819 15.9493Z" fill="currentColor" stroke="currentColor" stroke-width="0.005"></path>
  </symbol>
  <symbol xmlns="http://www.w3.org/2000/svg" viewBox="0 0 16 16" id="start">
    <path fill-rule="evenodd" clip-rule="evenodd" d="M1.5 8a6.5 6.5 0 1 1 13 0 6.5 6.5 0 0 1-13 0ZM8 0a8 8 0 1 0 0 16A8 8 0 0 0 8 0ZM6.379 5.227A.25.25 0 0 0 6 5.442v5.117a.25.25 0 0 0 .379.214l4.264-2.559a.25.25 0 0 0 0-.428L6.379 5.227Z" fill="currentColor"></path>
  </symbol>
  <symbol xmlns="http://www.w3.org/2000/svg" viewBox="0 0 16 19" id="trash">
    <path d="M14.9999 3.30002H11.6L11.1 2.49997C10.4 1.39997 9.29994 0.800018 7.99994 0.800018C6.69994 0.800018 5.59996 1.39997 4.89996 2.49997L4.39996 3.30002H0.999939C0.599939 3.30002 0.199951 3.60001 0.199951 4.10001C0.199951 4.60001 0.499939 4.89999 0.999939 4.89999H2.29999V15.1C2.29999 16.8 3.59999 18.1 5.29999 18.1H10.7C12.4 18.1 13.7 16.8 13.7 15.1V4.89999H14.9999C15.3999 4.89999 15.8 4.60001 15.8 4.10001C15.8 3.60001 15.3999 3.30002 14.9999 3.30002ZM6.19995 3.30002C6.59995 2.70002 7.29994 2.30002 7.99994 2.30002C8.69994 2.30002 9.39999 2.70002 9.79999 3.30002H6.19995ZM6.79999 14.2C6.79999 14.6 6.49994 15 5.99994 15C5.59994 15 5.19995 14.7 5.19995 14.2V7.80002C5.19995 7.40002 5.49994 6.99997 5.99994 6.99997C6.39994 6.99997 6.79999 7.30002 6.79999 7.80002V14.2ZM10.7 14.2C10.7 14.6 10.4 15 9.89996 15C9.49996 15 9.09998 14.7 9.09998 14.2V7.80002C9.09998 7.40002 9.39996 6.99997 9.89996 6.99997C10.3 6.99997 10.7 7.30002 10.7 7.80002V14.2Z" fill="currentColor"></path>
  </symbol>
</svg>
