<svg width="0" height="0" class="hidden">
  <symbol fill="none" xmlns="http://www.w3.org/2000/svg" viewBox="0 0 25 25" id="alarm">
    <path d="M12.8433 23.2963C18.0071 23.2963 22.1933 19.1102 22.1933 13.9463C22.1933 8.78245 18.0071 4.59631 12.8433 4.59631C7.6794 4.59631 3.49327 8.78245 3.49327 13.9463C3.49327 19.1102 7.6794 23.2963 12.8433 23.2963Z" stroke="currentColor" stroke-linecap="round" stroke-linejoin="round" stroke-width="2"></path>
    <path d="M10.2933 1.19632H15.3933" stroke="currentColor" stroke-linecap="round" stroke-linejoin="round"></path>
    <path d="M12.8433 1.19632V4.59632" stroke="currentColor" stroke-linecap="round" stroke-linejoin="round"></path>
    <path d="M10.2933 10.5463L12.8433 13.9463H17.0933" stroke="currentColor" stroke-linecap="round" stroke-linejoin="round"></path>
    <path d="M21.3433 3.74632L23.0433 5.44632" stroke="currentColor" stroke-linecap="round" stroke-linejoin="round"></path>
    <path d="M4.34327 3.74632L2.64327 5.44632" stroke="currentColor" stroke-linecap="round" stroke-linejoin="round"></path>
  </symbol>
  <symbol xmlns="http://www.w3.org/2000/svg" viewBox="0 0 18 17" id="edit">
    <path d="M11 3.10001L2.40006 11.7C2.30006 11.8 2.30009 11.8 2.30009 11.9L1.00004 15.9C0.900037 16.3 1.30011 16.7 1.70011 16.6L3.30009 16.1L5.80009 15.3C5.90009 15.3 6.00004 15.2 6.00004 15.2L14.6 6.60001L11 3.10001Z" fill="currentColor"></path>
    <path d="M16.7001 0.900006C15.7001 6.07967e-06 14.2001 6.07967e-06 13.2001 0.900006L12 2.10002L15.4 5.49998L16.6 4.30003C17.1 3.80003 17.3 3.20002 17.3 2.60002C17.4 2.00002 17.2001 1.30001 16.7001 0.900006Z" fill="currentColor"></path>
  </symbol>
  <symbol xmlns="http://www.w3.org/2000/svg" viewBox="0 0 24 24" id="more-counter">
    <path fill-rule="evenodd" clip-rule="evenodd" d="M7.99999 21C8.25599 21 8.51199 20.902 8.70699 20.707L16.707 12.707C17.098 12.316 17.098 11.684 16.707 11.293L8.70699 3.29301C8.31599 2.90201 7.68399 2.90201 7.29299 3.29301C6.90199 3.68401 6.90199 4.31601 7.29299 4.70701L14.586 12L7.29299 19.293C6.90199 19.684 6.90199 20.316 7.29299 20.707C7.48799 20.902 7.74399 21 7.99999 21Z" fill="currentColor"></path>
  </symbol>
  <symbol fill="currentColor" xmlns="http://www.w3.org/2000/svg" viewBox="0 0 23 23" id="priority">
    <path d="M17.5521 13.2463C17.5561 12.1853 17.2763 11.1426 16.7418 10.2262C16.2073 9.30977 15.4374 8.55292 14.512 8.03407C13.5866 7.51522 12.5393 7.25324 11.4786 7.27527C10.4179 7.2973 9.38238 7.60254 8.47932 8.15937C7.57625 8.7162 6.8385 9.50436 6.34249 10.4422C5.84647 11.38 5.61024 12.4335 5.65826 13.4933C5.70628 14.5531 6.03681 15.5809 6.6156 16.47C7.1944 17.3592 8.0004 18.0774 8.95012 18.5503V21.4743C8.95455 21.6471 9.02636 21.8114 9.15022 21.9321C9.27408 22.0528 9.44019 22.1203 9.61312 22.1203H13.5911C13.7641 22.1203 13.9302 22.0528 14.054 21.9321C14.1779 21.8114 14.2497 21.6471 14.2541 21.4743V18.4993C15.2337 18.0116 16.0599 17.2633 16.6417 16.3365C17.2236 15.4097 17.5386 14.3405 17.5521 13.2463V13.2463Z" stroke="currentColor" stroke-linecap="round" stroke-linejoin="round"></path>
    <path d="M11.6022 1.02325V3.57325" stroke="currentColor" stroke-linecap="round" stroke-linejoin="round"></path>
    <path d="M18.4022 3.45428L16.6002 5.27328" stroke="currentColor" stroke-linecap="round" stroke-linejoin="round"></path>
    <path d="M22.2781 8.72424H19.7281" stroke="currentColor" stroke-linecap="round" stroke-linejoin="round"></path>
    <path d="M4.80212 3.45428L6.60412 5.27328" stroke="currentColor" stroke-linecap="round" stroke-linejoin="round"></path>
    <path d="M0.926147 8.72424H3.47615" stroke="currentColor" stroke-linecap="round" stroke-linejoin="round"></path>
  </symbol>
  <symbol xmlns="http://www.w3.org/2000/svg" viewBox="0 0 24 25" id="settings">
    <path d="M9.76077 2.41476C9.8072 2.29589 9.8767 2.1884 9.98151 2.1222C10.2173 1.97327 10.755 1.7306 11.7545 1.7306C12.7541 1.7306 13.2917 1.97327 13.5276 2.1222C13.6324 2.1884 13.7018 2.29589 13.7483 2.41476C13.9086 2.82489 14.3023 3.86875 14.535 4.80029C15.2773 5.10288 15.9639 5.52308 16.5739 6.03912C17.4584 5.78476 18.517 5.62086 18.9355 5.56162C19.0567 5.54449 19.18 5.55394 19.287 5.61622C19.5276 5.75637 19.9965 6.12432 20.4962 7.03392C20.996 7.94346 21.0648 8.55405 21.06 8.84316C21.0579 8.97165 21.004 9.08863 20.9293 9.1903C20.6713 9.54143 20.0074 10.4222 19.3557 11.0998C19.4146 11.5033 19.4452 11.9165 19.4452 12.3372C19.4452 12.758 19.4146 13.1712 19.3557 13.5746C20.0074 14.2522 20.6713 15.133 20.9293 15.4841C21.004 15.5859 21.0579 15.7028 21.06 15.8313C21.0648 16.1204 20.996 16.731 20.4962 17.6406C19.9965 18.5501 19.5276 18.9181 19.287 19.0582C19.18 19.1205 19.0567 19.1299 18.9355 19.1128C18.517 19.0536 17.4584 18.8897 16.5739 18.6353C15.9639 19.1514 15.2774 19.5716 14.535 19.8742C14.3023 20.8057 13.9086 21.8496 13.7483 22.2597C13.7018 22.3786 13.6324 22.4861 13.5276 22.5523C13.2917 22.7012 12.7541 22.9439 11.7545 22.9439C10.755 22.9439 10.2173 22.7012 9.98151 22.5523C9.8767 22.4861 9.8072 22.3786 9.76077 22.2597C9.60047 21.8496 9.20674 20.8057 8.9741 19.8742C8.2317 19.5716 7.54513 19.1514 6.93512 18.6353C6.05064 18.8897 4.9921 19.0536 4.5736 19.1128C4.4524 19.1299 4.32907 19.1205 4.2221 19.0582C3.98144 18.9181 3.51261 18.5501 3.01285 17.6406C2.51307 16.731 2.44426 16.1204 2.44908 15.8313C2.45122 15.7028 2.50508 15.5859 2.57982 15.4841C2.8378 15.133 3.50173 14.2522 4.15342 13.5746C4.09444 13.1712 4.06383 12.758 4.06383 12.3372C4.06383 11.9165 4.09444 11.5033 4.15342 11.0998C3.50174 10.4222 2.8378 9.54143 2.57982 9.1903C2.50508 9.08863 2.45122 8.97165 2.44908 8.84316C2.44426 8.55405 2.51307 7.94346 3.01285 7.03392C3.51261 6.12432 3.98144 5.75637 4.2221 5.61622C4.32907 5.55394 4.4524 5.54449 4.5736 5.56162C4.9921 5.62086 6.05064 5.78476 6.93517 6.03912C7.54518 5.52308 8.2317 5.10288 8.9741 4.80029C9.20674 3.86875 9.60047 2.82489 9.76077 2.41476Z" fill="currentColor"></path>
    <path d="M15.6727 12.3372C15.6727 14.5688 13.9184 16.3779 11.7545 16.3779C9.59052 16.3779 7.8363 14.5688 7.8363 12.3372C7.8363 10.1057 9.59052 8.29662 11.7545 8.29662C13.9184 8.29662 15.6727 10.1057 15.6727 12.3372Z" fill="#252525"></path>
  </symbol>
  <symbol xmlns="http://www.w3.org/2000/svg" viewBox="0 0 16 16" id="start">
    <path fill-rule="evenodd" clip-rule="evenodd" d="M1.5 8a6.5 6.5 0 1 1 13 0 6.5 6.5 0 0 1-13 0ZM8 0a8 8 0 1 0 0 16A8 8 0 0 0 8 0ZM6.379 5.227A.25.25 0 0 0 6 5.442v5.117a.25.25 0 0 0 .379.214l4.264-2.559a.25.25 0 0 0 0-.428L6.379 5.227Z" fill="currentColor"></path>
  </symbol>
  <symbol xmlns="http://www.w3.org/2000/svg" viewBox="0 0 16 19" id="trash">
    <path d="M14.9999 3.30002H11.6L11.1 2.49997C10.4 1.39997 9.29994 0.800018 7.99994 0.800018C6.69994 0.800018 5.59996 1.39997 4.89996 2.49997L4.39996 3.30002H0.999939C0.599939 3.30002 0.199951 3.60001 0.199951 4.10001C0.199951 4.60001 0.499939 4.89999 0.999939 4.89999H2.29999V15.1C2.29999 16.8 3.59999 18.1 5.29999 18.1H10.7C12.4 18.1 13.7 16.8 13.7 15.1V4.89999H14.9999C15.3999 4.89999 15.8 4.60001 15.8 4.10001C15.8 3.60001 15.3999 3.30002 14.9999 3.30002ZM6.19995 3.30002C6.59995 2.70002 7.29994 2.30002 7.99994 2.30002C8.69994 2.30002 9.39999 2.70002 9.79999 3.30002H6.19995ZM6.79999 14.2C6.79999 14.6 6.49994 15 5.99994 15C5.59994 15 5.19995 14.7 5.19995 14.2V7.80002C5.19995 7.40002 5.49994 6.99997 5.99994 6.99997C6.39994 6.99997 6.79999 7.30002 6.79999 7.80002V14.2ZM10.7 14.2C10.7 14.6 10.4 15 9.89996 15C9.49996 15 9.09998 14.7 9.09998 14.2V7.80002C9.09998 7.40002 9.39996 6.99997 9.89996 6.99997C10.3 6.99997 10.7 7.30002 10.7 7.80002V14.2Z" fill="currentColor"></path>
  </symbol>
</svg>
