<svg width="18" height="17" viewBox="0 0 18 17" xmlns="http://www.w3.org/2000/svg">
<path d="M11 3.10001L2.40006 11.7C2.30006 11.8 2.30009 11.8 2.30009 11.9L1.00004 15.9C0.900037 16.3 1.30011 16.7 1.70011 16.6L3.30009 16.1L5.80009 15.3C5.90009 15.3 6.00004 15.2 6.00004 15.2L14.6 6.60001L11 3.10001Z" fill="currentColor" />
<path d="M16.7001 0.900006C15.7001 6.07967e-06 14.2001 6.07967e-06 13.2001 0.900006L12 2.10002L15.4 5.49998L16.6 4.30003C17.1 3.80003 17.3 3.20002 17.3 2.60002C17.4 2.00002 17.2001 1.30001 16.7001 0.900006Z" fill="currentColor" />
</svg>
