<svg width="23" height="23" viewBox="0 0 23 23" fill="currentColor" xmlns="http://www.w3.org/2000/svg">
<path d="M17.5521 13.2463C17.5561 12.1853 17.2763 11.1426 16.7418 10.2262C16.2073 9.30977 15.4374 8.55292 14.512 8.03407C13.5866 7.51522 12.5393 7.25324 11.4786 7.27527C10.4179 7.2973 9.38238 7.60254 8.47932 8.15937C7.57625 8.7162 6.8385 9.50436 6.34249 10.4422C5.84647 11.38 5.61024 12.4335 5.65826 13.4933C5.70628 14.5531 6.03681 15.5809 6.6156 16.47C7.1944 17.3592 8.0004 18.0774 8.95012 18.5503V21.4743C8.95455 21.6471 9.02636 21.8114 9.15022 21.9321C9.27408 22.0528 9.44019 22.1203 9.61312 22.1203H13.5911C13.7641 22.1203 13.9302 22.0528 14.054 21.9321C14.1779 21.8114 14.2497 21.6471 14.2541 21.4743V18.4993C15.2337 18.0116 16.0599 17.2633 16.6417 16.3365C17.2236 15.4097 17.5386 14.3405 17.5521 13.2463V13.2463Z" stroke="currentColor" stroke-linecap="round" stroke-linejoin="round"/>
<path d="M11.6022 1.02325V3.57325" stroke="currentColor" stroke-linecap="round" stroke-linejoin="round"/>
<path d="M18.4022 3.45428L16.6002 5.27328" stroke="currentColor" stroke-linecap="round" stroke-linejoin="round"/>
<path d="M22.2781 8.72424H19.7281" stroke="currentColor" stroke-linecap="round" stroke-linejoin="round"/>
<path d="M4.80212 3.45428L6.60412 5.27328" stroke="currentColor" stroke-linecap="round" stroke-linejoin="round"/>
<path d="M0.926147 8.72424H3.47615" stroke="currentColor" stroke-linecap="round" stroke-linejoin="round"/>
</svg>
