<svg width="22" height="25" viewBox="0 0 22 25" xmlns="http://www.w3.org/2000/svg">
<path d="M19.2887 13.9708C19.2345 13.9022 19.2051 13.8172 19.2053 13.7297V11.2133C19.2051 11.1258 19.2345 11.0408 19.2887 10.9722L20.4496 9.51769C20.6584 9.25626 20.7836 8.93794 20.8087 8.60428C20.8338 8.27061 20.7576 7.93714 20.5902 7.64741L19.9133 6.4758C19.7463 6.18583 19.4958 5.95297 19.1944 5.80764C18.893 5.66233 18.5547 5.61129 18.2239 5.66122L16.3845 5.94099C16.2975 5.9532 16.209 5.93635 16.1325 5.89307L13.9531 4.63488C13.8763 4.58875 13.8175 4.51789 13.7862 4.43395L13.1076 2.70897C12.9861 2.39779 12.7736 2.13047 12.4979 1.94187C12.2222 1.75327 11.896 1.65216 11.562 1.65173H10.2048C9.87078 1.65216 9.54462 1.75327 9.26888 1.94187C8.99316 2.13047 8.78067 2.39779 8.65916 2.70897L7.97752 4.43395C7.94504 4.51561 7.88632 4.58413 7.8106 4.6287L5.62655 5.89307C5.55018 5.93646 5.46157 5.95332 5.3746 5.94099L3.53988 5.66122C3.20903 5.61129 2.87079 5.66233 2.5694 5.80764C2.268 5.95297 2.01743 6.18583 1.85046 6.4758L1.17346 7.64741C1.00604 7.93714 0.929903 8.27061 0.955004 8.60428C0.980089 8.93794 1.10525 9.25626 1.31412 9.51769L2.47491 10.9722C2.52923 11.0408 2.55866 11.1258 2.55839 11.2133V13.7297C2.55866 13.8172 2.52923 13.9022 2.47491 13.9708L1.31412 15.4253C1.10525 15.6867 0.980089 16.005 0.955004 16.3387C0.929903 16.6723 1.00604 17.0058 1.17346 17.2955L1.85046 18.4672C2.01743 18.7571 2.268 18.99 2.5694 19.1352C2.87079 19.2806 3.20903 19.3317 3.53988 19.2817L5.37924 19.0019C5.46621 18.9896 5.55481 19.0064 5.63119 19.0499L7.8106 20.3081C7.88632 20.3526 7.94504 20.4211 7.97752 20.5028L8.65608 22.234C8.77758 22.5451 8.99006 22.8126 9.2658 23.0011C9.54152 23.1896 9.8677 23.2909 10.2018 23.2912H11.5558C11.8898 23.2909 12.216 23.1896 12.4917 23.0011C12.7675 22.8126 12.9799 22.5451 13.1015 22.234L13.78 20.5028C13.8125 20.4211 13.8712 20.3526 13.9469 20.3081L16.1264 19.0499C16.2028 19.0066 16.2914 18.9898 16.3783 19.0019L18.2177 19.2817C18.5485 19.3317 18.8867 19.2806 19.1881 19.1352C19.4895 18.99 19.74 18.7571 19.9071 18.4672L20.5841 17.2955C20.7516 17.0058 20.8276 16.6723 20.8024 16.3387C20.7775 16.005 20.6524 15.6867 20.4434 15.4253L19.2887 13.9708ZM10.8819 15.9493C10.194 15.9493 9.52163 15.7453 8.9497 15.3631C8.3778 14.981 7.93204 14.4378 7.6688 13.8024C7.40558 13.1669 7.33671 12.4676 7.4709 11.793C7.6051 11.1184 7.93632 10.4987 8.42271 10.0123C8.90907 9.52594 9.52876 9.19472 10.2034 9.06052C10.878 8.92634 11.5773 8.99521 12.2127 9.25843C12.8482 9.52165 13.3914 9.96741 13.7735 10.5393C14.1557 11.1113 14.3596 11.7836 14.3596 12.4715C14.3596 13.3938 13.9932 14.2784 13.341 14.9306C12.6888 15.5828 11.8042 15.9493 10.8819 15.9493Z" fill="currentColor" stroke="currentColor" stroke-width="0.005"/>
</svg>
