<svg width="16" height="19" viewBox="0 0 16 19" xmlns="http://www.w3.org/2000/svg">
<path d="M14.9999 3.30002H11.6L11.1 2.49997C10.4 1.39997 9.29994 0.800018 7.99994 0.800018C6.69994 0.800018 5.59996 1.39997 4.89996 2.49997L4.39996 3.30002H0.999939C0.599939 3.30002 0.199951 3.60001 0.199951 4.10001C0.199951 4.60001 0.499939 4.89999 0.999939 4.89999H2.29999V15.1C2.29999 16.8 3.59999 18.1 5.29999 18.1H10.7C12.4 18.1 13.7 16.8 13.7 15.1V4.89999H14.9999C15.3999 4.89999 15.8 4.60001 15.8 4.10001C15.8 3.60001 15.3999 3.30002 14.9999 3.30002ZM6.19995 3.30002C6.59995 2.70002 7.29994 2.30002 7.99994 2.30002C8.69994 2.30002 9.39999 2.70002 9.79999 3.30002H6.19995ZM6.79999 14.2C6.79999 14.6 6.49994 15 5.99994 15C5.59994 15 5.19995 14.7 5.19995 14.2V7.80002C5.19995 7.40002 5.49994 6.99997 5.99994 6.99997C6.39994 6.99997 6.79999 7.30002 6.79999 7.80002V14.2ZM10.7 14.2C10.7 14.6 10.4 15 9.89996 15C9.49996 15 9.09998 14.7 9.09998 14.2V7.80002C9.09998 7.40002 9.39996 6.99997 9.89996 6.99997C10.3 6.99997 10.7 7.30002 10.7 7.80002V14.2Z" fill="currentColor" />
</svg>
